<svg width="120" height="39" viewBox="0 0 120 39" fill="none" xmlns="http://www.w3.org/2000/svg">
<path d="M51.7102 38.0199H41.9702L48.0502 0.639893H57.7902L51.7102 38.0199Z" fill="#0066B3"/>
<path d="M33.77 0.639893L24.5 26.3499L23.41 20.8099L20.13 3.99989C20.13 3.99989 19.74 0.639893 15.52 0.639893H0.18L0 1.26989C3.59153 2.16486 7.02471 3.60491 10.18 5.53989L18.63 38.0199H28.77L44.26 0.639893H33.77Z" fill="#0066B3"/>
<path d="M110.34 38.02H119.28L111.48 0.639991H103.66C102.71 0.56865 101.762 0.802816 100.954 1.30832C100.146 1.81382 99.5211 2.56421 99.1699 3.44999L84.6499 38.02H94.7699L96.7699 32.47H109.15L110.34 38.02ZM99.6299 24.8L104.74 10.8L107.62 24.8H99.6299Z" fill="#0066B3"/>
<path d="M85.4102 9.63L86.8002 1.63C83.9886 0.625595 81.0349 0.07537 78.0502 0C73.2202 0 61.7502 2.11 61.7502 12.37C61.7502 22.03 75.2102 22.15 75.2102 27.22C75.2102 32.29 63.1302 31.39 59.1502 28.22L57.7002 36.55C61.1818 38.0055 64.9272 38.7239 68.7002 38.66C75.3402 38.66 85.3602 35.22 85.3602 25.87C85.3502 16.15 71.7702 15.24 71.7702 11.02C71.7702 6.8 81.2502 7.33 85.4102 9.63Z" fill="#0066B3"/>
<path d="M23.41 20.8099L20.13 3.99989C20.13 3.99989 19.74 0.639893 15.52 0.639893H0.18L0 1.26989C5.28018 2.61606 10.2063 5.08937 14.44 8.51989C18.4639 11.7516 21.559 15.9923 23.41 20.8099Z" fill="#FAA634"/>
</svg>
