<svg width="59" height="61" viewBox="0 0 59 61" fill="none" xmlns="http://www.w3.org/2000/svg">
<path d="M56.1151 35.5581H55.2346V27.6052C55.2346 26.3461 54.6096 25.2313 53.6552 24.554V23.4711C53.6552 21.9004 52.3808 20.6225 50.8143 20.6225H50.1568L52.6724 16.9212C53.5156 15.6806 53.1949 13.9833 51.9577 13.1377L34.888 1.4737C34.2887 1.06404 33.5663 0.912853 32.8533 1.04848C32.1406 1.18388 31.5232 1.58939 31.1147 2.19046L16.3814 23.8687H12.2816L13.2707 13.8283C13.2819 13.7152 13.3552 13.6171 13.4575 13.5785C14.7318 13.0967 15.8363 12.197 16.5672 11.0451C16.6247 10.9544 16.7333 10.9025 16.8457 10.9139L23.2763 11.551C23.7373 11.5958 24.1475 11.2591 24.193 10.797C24.2385 10.3349 23.9019 9.92338 23.4411 9.87775L17.0105 9.24073C16.2641 9.16744 15.5523 9.51234 15.1523 10.1424C14.615 10.9894 13.8029 11.6509 12.8659 12.0051C12.1607 12.2717 11.6764 12.9069 11.6019 13.663L10.5966 23.8686H9.52742L11.0918 7.98882C11.1481 7.41726 11.6568 6.99735 12.2275 7.05462L25.2224 8.34179C25.6832 8.38638 26.0936 8.0499 26.1391 7.58781C26.1846 7.12572 25.848 6.71422 25.3872 6.66858L12.3923 5.38141C10.9025 5.23403 9.57017 6.32933 9.42296 7.82346L8.16202 20.6225H6.01468C4.44827 20.6225 3.17377 21.9004 3.17377 23.4711V24.2098C1.89226 24.8014 1 26.1003 1 27.6052V56.2634C1 58.3238 2.67167 60 4.72662 60H51.5081C53.5629 60 55.2346 58.3238 55.2346 56.2634V48.3106H56.1151C57.1545 48.3106 58 47.4628 58 46.4208V37.448C58.0001 36.4059 57.1545 35.5581 56.1151 35.5581ZM50.8143 22.3041C51.4563 22.3039 51.9784 22.8276 51.9784 23.4713V23.8996C51.8241 23.88 51.6675 23.8688 51.5081 23.8688H47.9506L49.014 22.3041H50.8143ZM32.5004 3.13722C32.6567 2.90733 32.8928 2.75223 33.1654 2.70037C33.2306 2.68804 33.296 2.68182 33.3609 2.68182C33.5674 2.68182 33.7692 2.74381 33.9437 2.86297L51.0134 14.527C51.4866 14.8505 51.6093 15.4997 51.2869 15.9742L45.9216 23.8685H44.634L47.2644 19.9981C47.691 19.3704 47.7262 18.5716 47.3559 17.9133C46.8638 17.0386 46.6643 16.0088 46.7942 15.0133C46.8907 14.2727 46.5657 13.5497 45.946 13.1263L37.0972 7.07974C36.4774 6.65625 35.6874 6.61742 35.0353 6.97845C34.159 7.46358 33.1301 7.65407 32.1384 7.51486C31.4028 7.41138 30.6569 7.74441 30.2366 8.36264L19.6982 23.8686H18.4106L32.5004 3.13722ZM32.8696 17.4137C29.2184 17.4137 26.2212 20.2684 25.977 23.8686H21.7272L31.622 9.30953C31.6221 9.30953 31.6221 9.30953 31.6221 9.30953C31.6783 9.22667 31.7715 9.17735 31.8672 9.17735C31.88 9.17735 31.8928 9.17827 31.9055 9.18C33.2545 9.36922 34.6537 9.1104 35.8457 8.45045C35.9394 8.39837 36.0599 8.40586 36.1527 8.46924L45.0017 14.5159C45.0943 14.5793 45.1453 14.689 45.1315 14.7955C44.9548 16.1494 45.2263 17.5499 45.8955 18.7394C45.9491 18.8349 45.9426 18.9573 45.8789 19.0512L42.605 23.8685H39.7626C39.5182 20.2684 36.5211 17.4137 32.8696 17.4137ZM38.0812 23.8687H27.6582C27.8984 21.1965 30.1433 19.0952 32.8696 19.0952C35.5961 19.0951 37.8411 21.1965 38.0812 23.8687ZM4.85062 23.4711C4.85062 22.8274 5.37272 22.3038 6.01468 22.3038H7.99642L7.8423 23.8686H4.85062V23.4711ZM2.67685 27.6052C2.67685 26.472 3.59635 25.55 4.72662 25.55H51.5081C52.6384 25.55 53.5578 26.472 53.5578 27.6052V29.938H2.67685V27.6052ZM53.5578 56.2634C53.5578 57.3966 52.6384 58.3186 51.5081 58.3186H4.72662C3.59635 58.3186 2.67685 57.3966 2.67685 56.2634V53.9306H7.19816C7.6613 53.9306 8.03652 53.5542 8.03652 53.09C8.03652 52.6257 7.66118 52.2493 7.19816 52.2493H2.67685V31.6194H53.5578V35.5581H45.586H45.5859C43.0741 35.5581 40.8984 37.0262 39.8658 39.1512C39.8623 39.1584 39.8584 39.1653 39.8549 39.1724C39.8461 39.1905 39.8386 39.2093 39.8301 39.2275C39.7071 39.4894 39.6002 39.7606 39.5132 40.0404C39.513 40.0412 39.5127 40.0419 39.5125 40.0427C39.3269 40.6406 39.2268 41.2759 39.2268 41.9343C39.2268 45.4503 42.0794 48.3106 45.5858 48.3106H45.5859H53.5576V52.2493H12.5667C12.1035 52.2493 11.7283 52.6257 11.7283 53.09C11.7283 53.5542 12.1037 53.9306 12.5667 53.9306H53.5578V56.2634ZM56.3233 46.4207C56.3233 46.5357 56.2299 46.6292 56.1151 46.6292H45.5861C43.8111 46.6292 42.2636 45.6337 41.4698 44.1704C41.4337 44.1039 41.3992 44.0363 41.3662 43.968C41.3004 43.8312 41.241 43.6908 41.1884 43.5469C41.0043 43.0438 40.9039 42.5006 40.9039 41.9343C40.9039 41.3681 41.0045 40.8249 41.1884 40.3218C41.2411 40.1781 41.3005 40.0376 41.3662 39.9007C41.3992 39.8324 41.4337 39.7648 41.4698 39.6983C42.2636 38.235 43.8111 37.2395 45.5861 37.2395H56.1151C56.2298 37.2395 56.3233 37.333 56.3233 37.448V46.4207Z" fill="#BD161C" stroke="#BD161C" stroke-width="0.2"/>
</svg>
