<svg width="206" height="61" viewBox="0 0 206 61" fill="none" xmlns="http://www.w3.org/2000/svg">
<path d="M105.5 35L104.362 36.1375L108.913 40.6875H86V41.5V42.3125H108.913L104.362 46.8625L105.5 48L112 41.5L105.5 35Z" fill="#BD161C" stroke="#BD161C" stroke-width="0.4"/>
<path d="M56.1151 35.5581H55.2346V27.6052C55.2346 26.3461 54.6096 25.2313 53.6552 24.554V23.4711C53.6552 21.9004 52.3808 20.6225 50.8143 20.6225H50.1568L52.6724 16.9212C53.5156 15.6806 53.1949 13.9833 51.9577 13.1377L34.888 1.4737C34.2887 1.06404 33.5663 0.912853 32.8533 1.04848C32.1406 1.18388 31.5232 1.58939 31.1147 2.19046L16.3814 23.8687H12.2816L13.2707 13.8283C13.2819 13.7152 13.3552 13.6171 13.4575 13.5785C14.7318 13.0967 15.8363 12.197 16.5672 11.0451C16.6247 10.9544 16.7333 10.9025 16.8457 10.9139L23.2763 11.551C23.7373 11.5958 24.1475 11.2591 24.193 10.797C24.2385 10.3349 23.9019 9.92338 23.4411 9.87775L17.0105 9.24073C16.2641 9.16744 15.5523 9.51234 15.1523 10.1424C14.615 10.9894 13.8029 11.6509 12.8659 12.0051C12.1607 12.2717 11.6764 12.9069 11.6019 13.663L10.5966 23.8686H9.52742L11.0918 7.98882C11.1481 7.41726 11.6568 6.99735 12.2275 7.05462L25.2224 8.34179C25.6832 8.38638 26.0936 8.0499 26.1391 7.58781C26.1846 7.12572 25.848 6.71422 25.3872 6.66858L12.3923 5.38141C10.9025 5.23403 9.57017 6.32933 9.42296 7.82346L8.16202 20.6225H6.01468C4.44827 20.6225 3.17377 21.9004 3.17377 23.4711V24.2098C1.89226 24.8014 1 26.1003 1 27.6052V56.2634C1 58.3238 2.67167 60 4.72662 60H51.5081C53.5629 60 55.2346 58.3238 55.2346 56.2634V48.3106H56.1151C57.1545 48.3106 58 47.4628 58 46.4208V37.448C58.0001 36.4059 57.1545 35.5581 56.1151 35.5581ZM50.8143 22.3041C51.4563 22.3039 51.9784 22.8276 51.9784 23.4713V23.8996C51.8241 23.88 51.6675 23.8688 51.5081 23.8688H47.9506L49.014 22.3041H50.8143ZM32.5004 3.13722C32.6567 2.90733 32.8928 2.75223 33.1654 2.70037C33.2306 2.68804 33.296 2.68182 33.3609 2.68182C33.5674 2.68182 33.7692 2.74381 33.9437 2.86297L51.0134 14.527C51.4866 14.8505 51.6093 15.4997 51.2869 15.9742L45.9216 23.8685H44.634L47.2644 19.9981C47.691 19.3704 47.7262 18.5716 47.3559 17.9133C46.8638 17.0386 46.6643 16.0088 46.7942 15.0133C46.8907 14.2727 46.5657 13.5497 45.946 13.1263L37.0972 7.07974C36.4774 6.65625 35.6874 6.61742 35.0353 6.97845C34.159 7.46358 33.1301 7.65407 32.1384 7.51486C31.4028 7.41138 30.6569 7.74441 30.2366 8.36264L19.6982 23.8686H18.4106L32.5004 3.13722ZM32.8696 17.4137C29.2184 17.4137 26.2212 20.2684 25.977 23.8686H21.7272L31.622 9.30953C31.6221 9.30953 31.6221 9.30953 31.6221 9.30953C31.6783 9.22667 31.7715 9.17735 31.8672 9.17735C31.88 9.17735 31.8928 9.17827 31.9055 9.18C33.2545 9.36922 34.6537 9.1104 35.8457 8.45045C35.9394 8.39837 36.0599 8.40586 36.1527 8.46924L45.0017 14.5159C45.0943 14.5793 45.1453 14.689 45.1315 14.7955C44.9548 16.1494 45.2263 17.5499 45.8955 18.7394C45.9491 18.8349 45.9426 18.9573 45.8789 19.0512L42.605 23.8685H39.7626C39.5182 20.2684 36.5211 17.4137 32.8696 17.4137ZM38.0812 23.8687H27.6582C27.8984 21.1965 30.1433 19.0952 32.8696 19.0952C35.5961 19.0951 37.8411 21.1965 38.0812 23.8687ZM4.85062 23.4711C4.85062 22.8274 5.37272 22.3038 6.01468 22.3038H7.99642L7.8423 23.8686H4.85062V23.4711ZM2.67685 27.6052C2.67685 26.472 3.59635 25.55 4.72662 25.55H51.5081C52.6384 25.55 53.5578 26.472 53.5578 27.6052V29.938H2.67685V27.6052ZM53.5578 56.2634C53.5578 57.3966 52.6384 58.3186 51.5081 58.3186H4.72662C3.59635 58.3186 2.67685 57.3966 2.67685 56.2634V53.9306H7.19816C7.6613 53.9306 8.03652 53.5542 8.03652 53.09C8.03652 52.6257 7.66118 52.2493 7.19816 52.2493H2.67685V31.6194H53.5578V35.5581H45.586H45.5859C43.0741 35.5581 40.8984 37.0262 39.8658 39.1512C39.8623 39.1584 39.8584 39.1653 39.8549 39.1724C39.8461 39.1905 39.8386 39.2093 39.8301 39.2275C39.7071 39.4894 39.6002 39.7606 39.5132 40.0404C39.513 40.0412 39.5127 40.0419 39.5125 40.0427C39.3269 40.6406 39.2268 41.2759 39.2268 41.9343C39.2268 45.4503 42.0794 48.3106 45.5858 48.3106H45.5859H53.5576V52.2493H12.5667C12.1035 52.2493 11.7283 52.6257 11.7283 53.09C11.7283 53.5542 12.1037 53.9306 12.5667 53.9306H53.5578V56.2634ZM56.3233 46.4207C56.3233 46.5357 56.2299 46.6292 56.1151 46.6292H45.5861C43.8111 46.6292 42.2636 45.6337 41.4698 44.1704C41.4337 44.1039 41.3992 44.0363 41.3662 43.968C41.3004 43.8312 41.241 43.6908 41.1884 43.5469C41.0043 43.0438 40.9039 42.5006 40.9039 41.9343C40.9039 41.3681 41.0045 40.8249 41.1884 40.3218C41.2411 40.1781 41.3005 40.0376 41.3662 39.9007C41.3992 39.8324 41.4337 39.7648 41.4698 39.6983C42.2636 38.235 43.8111 37.2395 45.5861 37.2395H56.1151C56.2298 37.2395 56.3233 37.333 56.3233 37.448V46.4207Z" fill="#BD161C" stroke="#BD161C" stroke-width="0.2"/>
<path d="M45.5 39C43.57 39 42 40.3459 42 42C42 43.6542 43.57 45 45.5 45C47.43 45 49 43.6542 49 42C49 40.3459 47.43 39 45.5 39ZM45.5 43.5212C44.5214 43.5212 43.7253 42.8387 43.7253 42C43.7253 41.1614 44.5214 40.4788 45.5 40.4788C46.4786 40.4788 47.2747 41.1613 47.2747 42C47.2747 42.8388 46.4786 43.5212 45.5 43.5212Z" fill="#BD161C" stroke="#BD161C" stroke-width="0.2"/>
<path d="M203.115 35.5581H202.235V27.6052C202.235 26.3461 201.61 25.2313 200.655 24.554V23.4711C200.655 21.9004 199.381 20.6225 197.814 20.6225H197.157L199.672 16.9212C200.516 15.6806 200.195 13.9833 198.958 13.1377L181.888 1.4737C181.289 1.06404 180.566 0.912853 179.853 1.04848C179.141 1.18388 178.523 1.58939 178.115 2.19046L163.381 23.8687H159.282L160.271 13.8283C160.282 13.7152 160.355 13.6171 160.457 13.5785C161.732 13.0967 162.836 12.197 163.567 11.0451C163.625 10.9544 163.733 10.9025 163.846 10.9139L170.276 11.551C170.737 11.5958 171.148 11.2591 171.193 10.797C171.239 10.3349 170.902 9.92338 170.441 9.87775L164.011 9.24073C163.264 9.16744 162.552 9.51234 162.152 10.1424C161.615 10.9894 160.803 11.6509 159.866 12.0051C159.161 12.2717 158.676 12.9069 158.602 13.663L157.597 23.8686H156.527L158.092 7.98882C158.148 7.41726 158.657 6.99735 159.228 7.05462L172.222 8.34179C172.683 8.38638 173.094 8.0499 173.139 7.58781C173.185 7.12572 172.848 6.71422 172.387 6.66858L159.392 5.38141C157.902 5.23403 156.57 6.32933 156.423 7.82346L155.162 20.6225H153.015C151.448 20.6225 150.174 21.9004 150.174 23.4711V24.2098C148.892 24.8014 148 26.1003 148 27.6052V56.2634C148 58.3238 149.672 60 151.727 60H198.508C200.563 60 202.235 58.3238 202.235 56.2634V48.3106H203.115C204.155 48.3106 205 47.4628 205 46.4208V37.448C205 36.4059 204.155 35.5581 203.115 35.5581ZM197.814 22.3041C198.456 22.3039 198.978 22.8276 198.978 23.4713V23.8996C198.824 23.88 198.667 23.8688 198.508 23.8688H194.951L196.014 22.3041H197.814ZM179.5 3.13722C179.657 2.90733 179.893 2.75223 180.165 2.70037C180.231 2.68804 180.296 2.68182 180.361 2.68182C180.567 2.68182 180.769 2.74381 180.944 2.86297L198.013 14.527C198.487 14.8505 198.609 15.4997 198.287 15.9742L192.922 23.8685H191.634L194.264 19.9981C194.691 19.3704 194.726 18.5716 194.356 17.9133C193.864 17.0386 193.664 16.0088 193.794 15.0133C193.891 14.2727 193.566 13.5497 192.946 13.1263L184.097 7.07974C183.477 6.65625 182.687 6.61742 182.035 6.97845C181.159 7.46358 180.13 7.65407 179.138 7.51486C178.403 7.41138 177.657 7.74441 177.237 8.36264L166.698 23.8686H165.411L179.5 3.13722ZM179.87 17.4137C176.218 17.4137 173.221 20.2684 172.977 23.8686H168.727L178.622 9.30953C178.622 9.30953 178.622 9.30953 178.622 9.30953C178.678 9.22667 178.772 9.17735 178.867 9.17735C178.88 9.17735 178.893 9.17827 178.906 9.18C180.254 9.36922 181.654 9.1104 182.846 8.45045C182.939 8.39837 183.06 8.40586 183.153 8.46924L192.002 14.5159C192.094 14.5793 192.145 14.689 192.131 14.7955C191.955 16.1494 192.226 17.5499 192.895 18.7394C192.949 18.8349 192.943 18.9573 192.879 19.0512L189.605 23.8685H186.763C186.518 20.2684 183.521 17.4137 179.87 17.4137ZM185.081 23.8687H174.658C174.898 21.1965 177.143 19.0952 179.87 19.0952C182.596 19.0951 184.841 21.1965 185.081 23.8687ZM151.851 23.4711C151.851 22.8274 152.373 22.3038 153.015 22.3038H154.996L154.842 23.8686H151.851V23.4711ZM149.677 27.6052C149.677 26.472 150.596 25.55 151.727 25.55H198.508C199.638 25.55 200.558 26.472 200.558 27.6052V29.938H149.677V27.6052ZM200.558 56.2634C200.558 57.3966 199.638 58.3186 198.508 58.3186H151.727C150.596 58.3186 149.677 57.3966 149.677 56.2634V53.9306H154.198C154.661 53.9306 155.037 53.5542 155.037 53.09C155.037 52.6257 154.661 52.2493 154.198 52.2493H149.677V31.6194H200.558V35.5581H192.586H192.586C190.074 35.5581 187.898 37.0262 186.866 39.1512C186.862 39.1584 186.858 39.1653 186.855 39.1724C186.846 39.1905 186.839 39.2093 186.83 39.2275C186.707 39.4894 186.6 39.7606 186.513 40.0404C186.513 40.0412 186.513 40.0419 186.513 40.0427C186.327 40.6406 186.227 41.2759 186.227 41.9343C186.227 45.4503 189.079 48.3106 192.586 48.3106H192.586H200.558V52.2493H159.567C159.104 52.2493 158.728 52.6257 158.728 53.09C158.728 53.5542 159.104 53.9306 159.567 53.9306H200.558V56.2634ZM203.323 46.4207C203.323 46.5357 203.23 46.6292 203.115 46.6292H192.586C190.811 46.6292 189.264 45.6337 188.47 44.1704C188.434 44.1039 188.399 44.0363 188.366 43.968C188.3 43.8312 188.241 43.6908 188.188 43.5469C188.004 43.0438 187.904 42.5006 187.904 41.9343C187.904 41.3681 188.004 40.8249 188.188 40.3218C188.241 40.1781 188.3 40.0376 188.366 39.9007C188.399 39.8324 188.434 39.7648 188.47 39.6983C189.264 38.235 190.811 37.2395 192.586 37.2395H203.115C203.23 37.2395 203.323 37.333 203.323 37.448V46.4207Z" fill="#BD161C" stroke="#BD161C" stroke-width="0.2"/>
<path d="M192.5 39C190.57 39 189 40.3459 189 42C189 43.6542 190.57 45 192.5 45C194.43 45 196 43.6542 196 42C196 40.3459 194.43 39 192.5 39ZM192.5 43.5212C191.521 43.5212 190.725 42.8387 190.725 42C190.725 41.1614 191.521 40.4788 192.5 40.4788C193.479 40.4788 194.275 41.1613 194.275 42C194.275 42.8388 193.479 43.5212 192.5 43.5212Z" fill="#BD161C" stroke="#BD161C" stroke-width="0.2"/>
</svg>
