<svg width="69" height="70" viewBox="0 0 69 70" fill="none" xmlns="http://www.w3.org/2000/svg">
<path d="M62.2619 19.4051H60.809L41.799 0.395117C41.2727 -0.131159 40.4192 -0.131159 39.8931 0.395117L35.023 5.26529L15.5456 0.0463328C14.8266 -0.146523 14.0875 0.280293 13.8949 0.99929L8.96341 19.4051H5.6602C2.5392 19.4051 0 21.9441 0 25.0653C0 25.1401 0.00283017 25.2143 0.00566033 25.2885C0.00256063 25.3255 0 25.3627 0 25.4006V62.2639C0 65.9792 3.02289 69.0021 6.73836 69.0021H54.9845C55.0054 69.0021 55.0258 69.0008 55.0467 69.0005H62.2618C65.9772 69.0005 69 65.9778 69 62.2622V26.1433C69.0001 22.4277 65.9774 19.4051 62.2619 19.4051ZM61.0579 22.1003H62.2619C64.4913 22.1003 66.3049 23.9141 66.3049 26.1433V36.9442C66.3049 38.7055 64.8719 40.1383 63.1107 40.1383H61.7228V34.7683C61.7228 31.0997 58.7756 28.1086 55.1246 28.0334L61.0579 22.1003ZM36.3788 7.72134C36.379 7.72121 36.3791 7.72094 36.3792 7.7208L40.8462 3.25385L58.4695 20.8772L51.3604 27.9863H48.8949L52.1197 24.7614C52.646 24.2351 52.646 23.3817 52.1197 22.8555C51.0287 21.7645 51.0287 19.9896 52.1197 18.8986C52.646 18.3723 52.646 17.519 52.1197 16.9926L44.7305 9.60367C44.2042 9.0774 43.3509 9.0774 42.8245 9.60367C41.7335 10.6948 39.9584 10.6948 38.8676 9.60367C38.3413 9.0774 37.4878 9.0774 36.9617 9.60367L18.5791 27.9864H16.1136L36.3788 7.72134ZM32.4127 22.9231C29.3362 22.9231 26.7585 25.0955 26.1298 27.9864H22.3907L38.0329 12.3442C39.7594 13.3733 41.9327 13.3733 43.6592 12.3442L49.379 18.064C48.35 19.7904 48.35 21.964 49.379 23.6904L45.0829 27.9864H38.6955C38.0668 25.0953 35.4893 22.9231 32.4127 22.9231ZM35.8879 27.9864H28.938C29.4849 26.6014 30.836 25.6185 32.413 25.6185C33.9899 25.6185 35.3408 26.6014 35.8879 27.9864ZM14.6892 25.599L18.2582 12.2793C19.2368 12.295 20.2102 12.0452 21.082 11.5415C21.954 11.0382 22.6556 10.3224 23.1328 9.46486L29.1982 11.09L20.3962 19.892L14.6892 25.599ZM16.1497 2.9986L32.8222 7.46595L31.3989 8.88939L22.6888 6.55545C22.3434 6.46286 21.9756 6.51138 21.6661 6.69008C21.3566 6.86879 21.1307 7.16312 21.0382 7.5084C20.8447 8.23023 20.3818 8.8336 19.7346 9.20731C19.0873 9.58103 18.3333 9.68022 17.6113 9.48682C16.8926 9.2941 16.1534 9.72079 15.9608 10.4398L11.2473 28.0301H9.44251L16.1497 2.9986ZM5.6602 22.1003H8.2409L6.65197 28.0301H5.66006C4.02517 28.0301 2.69526 26.7 2.69526 25.0653C2.6954 23.4304 4.02557 22.1003 5.6602 22.1003ZM66.3049 62.2622C66.3049 64.4915 64.4911 66.3051 62.2619 66.3051H60.3727C61.22 65.1784 61.7228 63.7789 61.7228 62.2638V56.8493H62.5314C63.939 56.8493 65.2418 56.396 66.3049 55.6297V62.2622ZM66.3049 50.3806C66.3049 52.4613 64.612 54.154 62.5314 54.154H34.2306C31.1096 54.154 28.5704 51.6149 28.5704 48.4938C28.5704 45.3727 31.1095 42.8336 34.2306 42.8336H38.3149C39.0593 42.8336 39.6626 42.2301 39.6626 41.4859C39.6626 40.7417 39.0593 40.1382 38.3149 40.1382H34.2306C29.6234 40.1382 25.8751 43.8864 25.8751 48.4937C25.8751 53.1009 29.6234 56.8491 34.2306 56.8491H59.0276V62.2636C59.0276 64.4721 57.2474 66.273 55.0469 66.3066H9.16408V51.1303C9.16408 50.3861 8.56071 49.7826 7.81638 49.7826C7.07205 49.7826 6.46868 50.3861 6.46868 51.1303V66.2968C4.36466 66.1575 2.69526 64.4024 2.69526 62.2639V29.8841C3.55819 30.417 4.57368 30.7253 5.66006 30.7253H54.9843C57.2137 30.7253 59.0273 32.5391 59.0273 34.7683V40.1383H49.283C48.5387 40.1383 47.9353 40.7418 47.9353 41.486C47.9353 42.2302 48.5387 42.8337 49.283 42.8337H63.1107C64.2876 42.8337 65.3841 42.4854 66.3049 41.8883V50.3806Z" fill="#BD161C"/>
</svg>
