<svg width="208" height="61" viewBox="0 0 208 61" fill="none" xmlns="http://www.w3.org/2000/svg">
<path d="M105.5 35L104.362 36.1375L108.913 40.6875H86V41.5V42.3125H108.913L104.362 46.8625L105.5 48L112 41.5L105.5 35Z" fill="#BD161C" stroke="#BD161C" stroke-width="0.4"/>
<path d="M56.1151 35.5581H55.2346V27.6052C55.2346 26.3461 54.6096 25.2313 53.6552 24.554V23.4711C53.6552 21.9004 52.3808 20.6225 50.8143 20.6225H50.1568L52.6724 16.9212C53.5156 15.6806 53.1949 13.9833 51.9577 13.1377L34.888 1.4737C34.2887 1.06404 33.5663 0.912853 32.8533 1.04848C32.1406 1.18388 31.5232 1.58939 31.1147 2.19046L16.3814 23.8687H12.2816L13.2707 13.8283C13.2819 13.7152 13.3552 13.6171 13.4575 13.5785C14.7318 13.0967 15.8363 12.197 16.5672 11.0451C16.6247 10.9544 16.7333 10.9025 16.8457 10.9139L23.2763 11.551C23.7373 11.5958 24.1475 11.2591 24.193 10.797C24.2385 10.3349 23.9019 9.92338 23.4411 9.87775L17.0105 9.24073C16.2641 9.16744 15.5523 9.51234 15.1523 10.1424C14.615 10.9894 13.8029 11.6509 12.8659 12.0051C12.1607 12.2717 11.6764 12.9069 11.6019 13.663L10.5966 23.8686H9.52742L11.0918 7.98882C11.1481 7.41726 11.6568 6.99735 12.2275 7.05462L25.2224 8.34179C25.6832 8.38638 26.0936 8.0499 26.1391 7.58781C26.1846 7.12572 25.848 6.71422 25.3872 6.66858L12.3923 5.38141C10.9025 5.23403 9.57017 6.32933 9.42296 7.82346L8.16202 20.6225H6.01468C4.44827 20.6225 3.17377 21.9004 3.17377 23.4711V24.2098C1.89226 24.8014 1 26.1003 1 27.6052V56.2634C1 58.3238 2.67167 60 4.72662 60H51.5081C53.5629 60 55.2346 58.3238 55.2346 56.2634V48.3106H56.1151C57.1545 48.3106 58 47.4628 58 46.4208V37.448C58.0001 36.4059 57.1545 35.5581 56.1151 35.5581ZM50.8143 22.3041C51.4563 22.3039 51.9784 22.8276 51.9784 23.4713V23.8996C51.8241 23.88 51.6675 23.8688 51.5081 23.8688H47.9506L49.014 22.3041H50.8143ZM32.5004 3.13722C32.6567 2.90733 32.8928 2.75223 33.1654 2.70037C33.2306 2.68804 33.296 2.68182 33.3609 2.68182C33.5674 2.68182 33.7692 2.74381 33.9437 2.86297L51.0134 14.527C51.4866 14.8505 51.6093 15.4997 51.2869 15.9742L45.9216 23.8685H44.634L47.2644 19.9981C47.691 19.3704 47.7262 18.5716 47.3559 17.9133C46.8638 17.0386 46.6643 16.0088 46.7942 15.0133C46.8907 14.2727 46.5657 13.5497 45.946 13.1263L37.0972 7.07974C36.4774 6.65625 35.6874 6.61742 35.0353 6.97845C34.159 7.46358 33.1301 7.65407 32.1384 7.51486C31.4028 7.41138 30.6569 7.74441 30.2366 8.36264L19.6982 23.8686H18.4106L32.5004 3.13722ZM32.8696 17.4137C29.2184 17.4137 26.2212 20.2684 25.977 23.8686H21.7272L31.622 9.30953C31.6221 9.30953 31.6221 9.30953 31.6221 9.30953C31.6783 9.22667 31.7715 9.17735 31.8672 9.17735C31.88 9.17735 31.8928 9.17827 31.9055 9.18C33.2545 9.36922 34.6537 9.1104 35.8457 8.45045C35.9394 8.39837 36.0599 8.40586 36.1527 8.46924L45.0017 14.5159C45.0943 14.5793 45.1453 14.689 45.1315 14.7955C44.9548 16.1494 45.2263 17.5499 45.8955 18.7394C45.9491 18.8349 45.9426 18.9573 45.8789 19.0512L42.605 23.8685H39.7626C39.5182 20.2684 36.5211 17.4137 32.8696 17.4137ZM38.0812 23.8687H27.6582C27.8984 21.1965 30.1433 19.0952 32.8696 19.0952C35.5961 19.0951 37.8411 21.1965 38.0812 23.8687ZM4.85062 23.4711C4.85062 22.8274 5.37272 22.3038 6.01468 22.3038H7.99642L7.8423 23.8686H4.85062V23.4711ZM2.67685 27.6052C2.67685 26.472 3.59635 25.55 4.72662 25.55H51.5081C52.6384 25.55 53.5578 26.472 53.5578 27.6052V29.938H2.67685V27.6052ZM53.5578 56.2634C53.5578 57.3966 52.6384 58.3186 51.5081 58.3186H4.72662C3.59635 58.3186 2.67685 57.3966 2.67685 56.2634V53.9306H7.19816C7.6613 53.9306 8.03652 53.5542 8.03652 53.09C8.03652 52.6257 7.66118 52.2493 7.19816 52.2493H2.67685V31.6194H53.5578V35.5581H45.586H45.5859C43.0741 35.5581 40.8984 37.0262 39.8658 39.1512C39.8623 39.1584 39.8584 39.1653 39.8549 39.1724C39.8461 39.1905 39.8386 39.2093 39.8301 39.2275C39.7071 39.4894 39.6002 39.7606 39.5132 40.0404C39.513 40.0412 39.5127 40.0419 39.5125 40.0427C39.3269 40.6406 39.2268 41.2759 39.2268 41.9343C39.2268 45.4503 42.0794 48.3106 45.5858 48.3106H45.5859H53.5576V52.2493H12.5667C12.1035 52.2493 11.7283 52.6257 11.7283 53.09C11.7283 53.5542 12.1037 53.9306 12.5667 53.9306H53.5578V56.2634ZM56.3233 46.4207C56.3233 46.5357 56.2299 46.6292 56.1151 46.6292H45.5861C43.8111 46.6292 42.2636 45.6337 41.4698 44.1704C41.4337 44.1039 41.3992 44.0363 41.3662 43.968C41.3004 43.8312 41.241 43.6908 41.1884 43.5469C41.0043 43.0438 40.9039 42.5006 40.9039 41.9343C40.9039 41.3681 41.0045 40.8249 41.1884 40.3218C41.2411 40.1781 41.3005 40.0376 41.3662 39.9007C41.3992 39.8324 41.4337 39.7648 41.4698 39.6983C42.2636 38.235 43.8111 37.2395 45.5861 37.2395H56.1151C56.2298 37.2395 56.3233 37.333 56.3233 37.448V46.4207Z" fill="#BD161C" stroke="#BD161C" stroke-width="0.2"/>
<path d="M45.5 39C43.57 39 42 40.3459 42 42C42 43.6542 43.57 45 45.5 45C47.43 45 49 43.6542 49 42C49 40.3459 47.43 39 45.5 39ZM45.5 43.5212C44.5214 43.5212 43.7253 42.8387 43.7253 42C43.7253 41.1614 44.5214 40.4788 45.5 40.4788C46.4786 40.4788 47.2747 41.1613 47.2747 42C47.2747 42.8388 46.4786 43.5212 45.5 43.5212Z" fill="#BD161C" stroke="#BD161C" stroke-width="0.2"/>
<path d="M200.589 32.4466C198.483 31.394 194.536 31.3818 194.369 31.3818C193.868 31.3818 193.462 31.7876 193.462 32.2881C193.462 32.7887 193.868 33.1945 194.369 33.1945C195.387 33.1946 198.345 33.3515 199.778 34.0679C199.908 34.1331 200.046 34.1638 200.183 34.1638C200.515 34.1638 200.835 33.9801 200.994 33.6626C201.218 33.2149 201.036 32.6705 200.589 32.4466Z" fill="#BD161C"/>
<path d="M205.107 45.3506L201.364 44.2811C201.203 44.235 201.09 44.0853 201.09 43.9172V42.6678C201.394 42.4568 201.685 42.2207 201.956 41.9571C203.272 40.68 203.997 38.967 203.997 37.1335V35.4094L204.359 34.6857C204.756 33.8911 204.966 33.0016 204.966 32.1133V27.4426C204.966 26.9421 204.56 26.5363 204.06 26.5363H195.338C192.166 26.5363 189.586 29.1166 189.586 32.2881V32.3421C189.586 33.0807 189.761 33.8204 190.091 34.481L190.555 35.4093V36.8897C190.555 39.2358 191.711 41.3408 193.463 42.6075L193.463 43.917C193.463 44.1189 193.463 44.2026 192.714 44.4165L190.888 44.9383L185.604 43.0171C185.623 42.7678 185.539 42.5142 185.357 42.3232L183.669 40.5494V37.5717C183.848 37.4247 184.023 37.2736 184.194 37.1138C186.324 35.1174 187.545 32.2988 187.545 29.3807V27.0027C188.189 25.6032 188.515 24.1222 188.515 22.597V12.9063C188.515 12.4058 188.109 12 187.608 12H174.041C169.266 12 165.382 15.8845 165.382 20.659V22.5973C165.382 24.1225 165.708 25.6034 166.351 27.003V29.049C166.351 32.4371 167.857 35.4894 170.227 37.5018V40.5495L168.539 42.3233C168.357 42.5143 168.273 42.7679 168.292 43.0172L162.715 45.0449C162.311 45.1918 161.936 45.3909 161.595 45.6319L160.719 45.1941C163.326 44.0595 164.152 42.4637 164.191 42.3844C164.319 42.1293 164.319 41.8289 164.191 41.5738C163.538 40.267 163.459 37.8717 163.395 35.9471C163.374 35.3063 163.354 34.701 163.316 34.162C163.007 29.8147 159.702 26.5363 155.628 26.5363C151.554 26.5363 148.249 29.8146 147.94 34.162C147.902 34.7011 147.882 35.3065 147.861 35.9473C147.797 37.8718 147.718 40.2668 147.065 41.5737C146.937 41.8288 146.937 42.1292 147.065 42.3843C147.104 42.4636 147.928 44.0561 150.54 45.1921L148.108 46.4081C146.808 47.0588 146 48.3657 146 49.8194V56.5154C146 57.0159 146.406 57.4217 146.906 57.4217C147.407 57.4217 147.813 57.0159 147.813 56.5154V49.8194C147.813 49.0566 148.237 48.3708 148.919 48.0297L151.947 46.5153L153.001 47.5165C153.738 48.2166 154.683 48.5665 155.628 48.5665C156.573 48.5665 157.519 48.2164 158.255 47.5165L159.309 46.5154L160.296 47.0092C159.831 47.7533 159.567 48.6258 159.567 49.5398V56.5156C159.567 57.0162 159.973 57.422 160.474 57.422C160.974 57.422 161.38 57.0162 161.38 56.5156V49.5398C161.38 48.2955 162.166 47.1738 163.335 46.7486L169.214 44.6107L171.662 48.2821C171.975 48.7515 172.476 49.0525 173.037 49.1081C173.1 49.1143 173.162 49.1173 173.224 49.1173C173.72 49.1173 174.194 48.9223 174.549 48.5679L176.042 47.0747V56.5157C176.042 57.0163 176.448 57.4221 176.948 57.4221C177.449 57.4221 177.854 57.0163 177.854 56.5157V47.0747L179.348 48.5679C179.702 48.9225 180.176 49.1174 180.672 49.1174C180.734 49.1174 180.796 49.1144 180.859 49.1082C181.42 49.0526 181.921 48.7516 182.234 48.2822L184.682 44.6109L190.561 46.7488C191.73 47.1741 192.516 48.2958 192.516 49.54V56.5159C192.516 57.0164 192.922 57.4222 193.423 57.4222C193.923 57.4222 194.329 57.0164 194.329 56.5159V49.54C194.329 48.2798 193.828 47.0979 192.988 46.2238L193.212 46.1599C193.438 46.0954 193.746 46.007 194.056 45.8554L196.37 48.1695V56.5159C196.37 57.0164 196.776 57.4222 197.276 57.4222C197.777 57.4222 198.182 57.0164 198.182 56.5159V48.1695L200.48 45.8715C200.603 45.9336 200.731 45.986 200.866 46.0246L204.609 47.0941C205.464 47.3382 206.061 48.1294 206.061 49.0181V56.5159C206.061 57.0164 206.467 57.4222 206.967 57.4222C207.468 57.4222 207.873 57.0164 207.873 56.5159V49.0181C207.873 47.324 206.736 45.816 205.107 45.3506ZM151.815 43.7498C150.119 43.1397 149.269 42.3264 148.906 41.8823C149.153 41.2353 149.314 40.4943 149.422 39.712C149.922 40.9105 150.759 41.9336 151.815 42.6635V43.7498ZM157.007 46.2027C156.234 46.9372 155.023 46.9371 154.25 46.2026L153.407 45.4016C153.549 45.1351 153.627 44.833 153.627 44.5165V43.5505C154.26 43.7481 154.932 43.8547 155.628 43.8547C156.324 43.8547 156.996 43.7476 157.629 43.5511L157.629 44.5164C157.629 44.833 157.707 45.1353 157.849 45.4018L157.007 46.2027ZM155.629 42.042C152.922 42.042 150.72 39.8401 150.72 37.1338C150.72 36.6332 150.315 36.2274 149.814 36.2274C149.763 36.2274 149.714 36.2326 149.665 36.2407C149.668 36.1628 149.67 36.0847 149.673 36.0075C149.693 35.3843 149.713 34.7956 149.749 34.2907C149.864 32.6622 150.515 31.1615 151.581 30.065C152.656 28.9585 154.094 28.3492 155.628 28.3492C157.163 28.3492 158.6 28.9585 159.676 30.065C160.741 31.1615 161.392 32.6622 161.508 34.2907C161.544 34.7955 161.563 35.384 161.584 36.0071C161.586 36.0607 161.588 36.1149 161.589 36.1688C160.603 34.6495 159.08 33.5299 157.113 32.8976C155.295 32.3136 153.731 32.3497 153.665 32.3514C153.428 32.358 153.203 32.4574 153.038 32.6283L151.403 34.3242C151.055 34.6846 151.066 35.2584 151.426 35.6058C151.786 35.9532 152.36 35.9427 152.707 35.5825L154.068 34.1713C155.24 34.2286 159.01 34.6671 160.476 37.8957C160.107 40.2749 158.062 42.042 155.629 42.042ZM159.442 43.7528L159.442 42.6718C160.496 41.9459 161.334 40.9247 161.835 39.7172C161.943 40.4977 162.104 41.237 162.351 41.8826C161.99 42.3224 161.135 43.143 159.442 43.7528ZM168.164 29.0489V26.8002C168.164 26.6638 168.133 26.529 168.073 26.4061C167.49 25.1984 167.195 23.9169 167.195 22.5973V20.6591C167.195 16.884 170.266 13.8128 174.041 13.8128H186.702V22.5974C186.702 23.917 186.406 25.1985 185.823 26.4062C185.764 26.5291 185.733 26.6639 185.733 26.8003V29.381C185.733 31.8355 184.746 34.1121 182.954 35.7915C182.731 36.0011 182.499 36.1976 182.259 36.3807C182.253 36.3843 182.248 36.3883 182.243 36.392C180.565 37.6663 178.509 38.2857 176.362 38.1466C171.765 37.8489 168.164 33.8528 168.164 29.0489ZM173.267 47.286C173.261 47.2923 173.246 47.3071 173.216 47.304C173.187 47.3011 173.175 47.2838 173.17 47.2763L170.352 43.0481L171.259 42.095L175.535 45.0179L173.267 47.286ZM176.948 43.7883L172.04 40.4334V38.7415C173.31 39.428 174.732 39.8574 176.244 39.9553C176.483 39.9708 176.721 39.9784 176.957 39.9784C178.691 39.9784 180.358 39.5641 181.856 38.7778V40.4334L176.948 43.7883ZM180.726 47.2765C180.721 47.284 180.71 47.3013 180.68 47.3042C180.65 47.308 180.636 47.2924 180.63 47.2862L178.362 45.0183L182.638 42.0952L183.545 43.0484L180.726 47.2765ZM197.276 46.5118L195.219 44.4551C195.255 44.2921 195.276 44.1136 195.275 43.9168L195.275 43.5343C195.846 43.7216 196.448 43.8328 197.07 43.8514C197.14 43.8536 197.209 43.8545 197.279 43.8545C197.967 43.8545 198.638 43.7506 199.277 43.5523V43.9172C199.277 44.098 199.3 44.2752 199.343 44.4455L197.276 46.5118ZM200.694 40.6563C199.733 41.5885 198.464 42.0809 197.125 42.0395C194.502 41.9609 192.368 39.6506 192.368 36.8899V35.1955C192.368 35.0547 192.335 34.916 192.272 34.7902L191.712 33.6704C191.507 33.2602 191.399 32.8009 191.399 32.3422V32.2882C191.399 30.1161 193.166 28.3491 195.338 28.3491H203.153V32.1134C203.153 32.7218 203.01 33.331 202.738 33.8751L202.28 34.7902C202.217 34.9161 202.184 35.0547 202.184 35.1955V37.1337C202.184 38.4726 201.655 39.7236 200.694 40.6563Z" fill="#BD161C"/>
<path d="M203.09 49.7946C202.59 49.7946 202.184 50.2004 202.184 50.7009V56.5155C202.184 57.016 202.59 57.4218 203.09 57.4218C203.591 57.4218 203.997 57.016 203.997 56.5155V50.7009C203.997 50.2005 203.591 49.7946 203.09 49.7946Z" fill="#BD161C"/>
<path d="M150.782 50.9926C150.282 50.9926 149.876 51.3984 149.876 51.899V56.5154C149.876 57.016 150.282 57.4218 150.782 57.4218C151.283 57.4218 151.689 57.016 151.689 56.5154V51.899C151.689 51.3985 151.283 50.9926 150.782 50.9926Z" fill="#BD161C"/>
<path d="M184.373 22.9256C180.945 19.4977 173.773 20.153 170.848 20.5939C169.927 20.7327 169.258 21.5123 169.258 22.4475V24.5355C169.258 25.0361 169.664 25.4419 170.165 25.4419C170.665 25.4419 171.071 25.0361 171.071 24.5355V22.4474C171.071 22.4166 171.091 22.3903 171.118 22.3862C172.287 22.2101 174.605 21.9384 177.007 22.0985C179.833 22.2867 181.88 22.9962 183.091 24.2073C183.445 24.5613 184.019 24.5613 184.373 24.2073C184.727 23.8534 184.727 23.2795 184.373 22.9256Z" fill="#BD161C"/>
<path d="M166.288 51.7328C165.788 51.7328 165.382 52.1386 165.382 52.6391V56.5155C165.382 57.0161 165.788 57.4219 166.288 57.4219C166.789 57.4219 167.195 57.0161 167.195 56.5155V52.6391C167.195 52.1387 166.789 51.7328 166.288 51.7328Z" fill="#BD161C"/>
<path d="M187.608 51.7328C187.108 51.7328 186.702 52.1386 186.702 52.6391V56.5155C186.702 57.0161 187.108 57.4219 187.608 57.4219C188.109 57.4219 188.515 57.0161 188.515 56.5155V52.6391C188.515 52.1387 188.109 51.7328 187.608 51.7328Z" fill="#BD161C"/>
</svg>
